<svg xmlns="http://www.w3.org/2000/svg" fill="none" viewBox="0 0 50 50">
  <g clip-path="url(#a)">
    <path fill="#FF7900" d="M50 0H0v50h50V0Z"/>
    <path fill="#fff" d="M19.61 45.15c-.7.46-1.48.69-2.3.69-1.3 0-2.05-.87-2.05-2.03 0-1.55 1.42-2.38 4.37-2.72v-.38c0-.52-.39-.8-1.1-.8-.7 0-1.28.28-1.69.8L15.61 40c.65-.9 1.64-1.36 2.96-1.36 1.82 0 2.84.8 2.84 2.07v5.04H19.8l-.18-.6Zm-2.57-1.46c0 .45.3.9.83.9.58 0 1.12-.25 1.69-.75V42.2c-1.71.23-2.52.66-2.52 1.49Zm5.8-4.69 1.52-.22.16.83c.86-.62 1.53-.95 2.4-.95 1.42 0 2.16.76 2.16 2.26v4.85h-1.83v-4.54c0-.84-.23-1.23-.88-1.23-.55 0-1.1.25-1.71.78v4.99h-1.82v-6.78Zm18.38 6.9c-2.05 0-3.28-1.33-3.28-3.62 0-2.32 1.23-3.64 3.24-3.64 2.01 0 3.21 1.27 3.21 3.55l-.02.35h-4.63c.01 1.32.56 1.98 1.64 1.98.68 0 1.14-.29 1.57-.9l1.34.74c-.59 1-1.64 1.53-3.07 1.53Zm1.37-4.54c0-.94-.53-1.48-1.4-1.48-.82 0-1.33.53-1.4 1.48h2.8Zm-36.43 4.6c-1.82 0-3.44-1.15-3.44-3.67s1.64-3.67 3.44-3.67c1.81 0 3.43 1.15 3.43 3.67s-1.62 3.67-3.43 3.67Zm0-5.8c-1.36 0-1.63 1.23-1.63 2.12 0 .9.25 2.11 1.63 2.11 1.37 0 1.62-1.23 1.62-2.11 0-.89-.27-2.12-1.62-2.12Zm4.69-1.36h1.74v.81a2.71 2.71 0 0 1 1.93-.97 1 1 0 0 1 .22.02v1.71h-.08c-.8 0-1.68.12-1.94.74v4.62h-1.87V38.8Zm22.71 5.47c1.4-.02 1.5-1.43 1.5-2.35 0-1.1-.53-1.97-1.52-1.97-.65 0-1.39.47-1.39 2.04.02.87.07 2.28 1.41 2.28Zm3.28-5.49v6.6c0 1.16-.09 3.07-3.4 3.1-1.38 0-2.63-.54-2.9-1.73l1.8-.28c.08.34.29.7 1.31.7.95-.01 1.41-.47 1.41-1.54v-.82l-.02-.01c-.28.5-.74 1-1.8 1-1.62 0-2.89-1.13-2.89-3.47 0-2.33 1.33-3.64 2.8-3.64 1.4 0 1.91.64 2.04.97h-.02l.16-.82h1.51v-.06Zm8.26-2.31h-.73v2H44v-2h-.73v-.3h1.82v.3h.02Zm3 2h-.4v-1.93h-.01l-.76 1.93h-.25l-.75-1.93h-.02v1.93h-.39v-2.3h.58l.69 1.75.67-1.75h.58v2.3h.06Z"/>
  </g>
  <defs>
    <clipPath id="a">
      <path fill="#fff" d="M0 0h50v50H0z"/>
    </clipPath>
  </defs>
</svg>
