<?xml version="1.0" encoding="UTF-8" standalone="no"?>
<!DOCTYPE svg PUBLIC "-//W3C//DTD SVG 1.1//EN" "http://www.w3.org/Graphics/SVG/1.1/DTD/svg11.dtd">
<svg width="100%" height="100%" viewBox="0 0 501 500" version="1.1" xmlns="http://www.w3.org/2000/svg" xmlns:xlink="http://www.w3.org/1999/xlink" xml:space="preserve" xmlns:serif="http://www.serif.com/" style="fill-rule:evenodd;clip-rule:evenodd;stroke-linejoin:round;stroke-miterlimit:2;">
    <g transform="matrix(1,0,0,1,-180.744,-44.7534)">
        <path d="M508.131,56.983C522.746,63.255 538.051,68.293 551.861,76.007C621.032,114.645 662.382,173.65 677.422,251.727C658.244,280.918 635.726,305.989 606.275,324.19C583.145,338.485 558.151,344.534 530.962,341.248C507.248,338.383 485.41,330.158 465.302,317.703C453.926,310.657 443.343,302.181 432.598,294C432.668,293.769 433.057,293.099 433.434,293.07C434.3,292.948 434.823,292.936 435.275,292.751C466.896,279.88 493.762,260.564 514.185,233.048C537.341,201.852 545.997,167.121 538.194,128.635C532.939,102.717 522.888,78.88 508.131,56.983Z" style="fill:rgb(254,75,64);fill-rule:nonzero;"/>
        <path d="M593.047,484.01C592.251,484.997 591.606,486.174 590.638,486.943C558.821,512.222 523.962,531.445 483.712,539.416C441.679,547.741 399.972,546.277 358.801,533.924C356.735,533.304 354.737,532.458 352.467,531.222C340.068,513.894 330.486,495.736 324.391,475.843C309.678,427.819 319.317,384.837 351.823,346.939C373.316,321.88 400.188,304.586 431.497,293.904C431.662,293.978 431.968,294.168 431.823,294.512C430.514,302.22 428.733,309.547 428.293,316.953C426.538,346.521 431.89,374.871 444.105,401.874C451.145,417.438 459.757,431.937 472.668,443.513C489.089,458.235 508.365,467.53 529.253,473.98C550.054,480.403 571.466,482.684 593.047,484.01Z" style="fill:rgb(10,154,245);fill-rule:nonzero;"/>
        <path d="M431.622,294C400.478,304.755 373.316,321.88 351.823,346.939C319.317,384.837 309.678,427.819 324.391,475.843C330.486,495.736 340.068,513.894 352.148,531.109C323.246,521.748 296.751,507.47 273.202,488.367C225.436,449.622 196.805,399.185 184.764,338.451C195.079,320.712 207.017,305.143 221.155,291.334C243.112,269.888 268.178,254.214 299.372,250.477C303.567,249.974 308.409,250.07 312.675,250.048C318.748,250.016 324.378,249.782 330.366,250.432C358.159,253.445 383.629,263.473 407.551,277.51C415.823,282.363 423.714,288.527 431.622,294Z" style="fill:rgb(64,193,24);fill-rule:nonzero;"/>
        <path d="M431.497,293.904C423.425,288.357 415.823,282.363 407.551,277.51C383.629,263.473 358.159,253.445 330.366,250.432C324.378,249.782 318.463,249.949 312.39,249.981C308.124,250.003 303.567,249.974 299.372,250.477C268.178,254.214 243.112,269.888 221.155,291.334C207.017,305.143 195.079,320.712 184.798,338.036C183.539,331.814 181.976,325.305 181.517,318.719C175.588,233.653 203.698,162.229 268.264,105.091C275.836,105.317 282.643,105.421 289.405,106.021C310.169,107.862 330.214,112.813 349.633,120.373C386.816,134.849 411.339,161.041 423.99,198.959C431.914,222.706 433.7,247.079 433.943,271.743C434.014,278.858 433.372,285.98 433.057,293.099C433.057,293.099 432.894,293.554 432.622,293.788C432.35,294.023 431.902,294.309 431.902,294.309C431.902,294.309 431.662,293.978 431.497,293.904Z" style="fill:rgb(255,211,0);fill-rule:nonzero;"/>
        <path d="M433.031,293.305C432.97,286.216 434.014,278.858 433.943,271.743C433.7,247.079 431.914,222.706 423.99,198.959C411.339,161.041 386.816,134.849 349.633,120.373C330.214,112.813 310.169,107.862 289.405,106.021C282.643,105.421 275.836,105.317 268.593,104.994C278.537,97.333 288.473,88.913 299.423,82.131C342.574,55.407 389.612,42.738 440.458,45.014C463.289,46.035 485.787,49.199 507.844,56.747C522.888,78.88 532.939,102.717 538.194,128.635C545.997,167.121 537.341,201.852 514.185,233.048C493.762,260.564 466.896,279.88 435.275,292.751C434.823,292.936 433.898,293.183 433.031,293.305Z" style="fill:rgb(255,162,1);fill-rule:nonzero;"/>
        <path d="M431.823,294.512C431.968,294.168 432.35,294.023 432.551,294.019C443.569,301.966 453.926,310.657 465.302,317.703C485.41,330.158 507.248,338.383 530.962,341.248C558.151,344.534 583.145,338.485 606.275,324.19C635.726,305.989 658.244,280.918 677.403,252.111C681.391,268.32 681.515,284.979 681.035,301.625C679.271,362.814 657.931,416.265 616.846,461.668C609.943,469.296 602.109,476.081 594.136,483.337C593.213,483.488 593.017,483.701 592.976,484.057C592.976,484.057 592.987,483.997 593.017,484.003C571.466,482.684 550.054,480.403 529.253,473.98C508.365,467.53 489.089,458.235 472.668,443.513C459.757,431.937 451.145,417.438 444.105,401.874C431.89,374.871 426.538,346.521 428.293,316.953C428.733,309.547 430.514,302.22 431.823,294.512Z" style="fill:rgb(187,93,211);fill-rule:nonzero;"/>
        <path d="M593.199,484.108C593.017,483.701 593.213,483.488 593.796,483.455C593.871,483.756 593.67,483.978 593.199,484.108Z" style="fill:rgb(10,154,245);fill-rule:nonzero;"/>
    </g>
</svg>
