<svg xmlns="http://www.w3.org/2000/svg" width="13.5" height="15" viewBox="0 0 13.5 15">
  <defs>
    <style>
      .cls-1 {
        fill: #3e3c47;
        fill-rule: evenodd;
      }
    </style>
  </defs>
  <path id="Forme_6" data-name="Forme 6" class="cls-1" d="M5474.66,475.912a0.768,0.768,0,0,0-.46.976,5.345,5.345,0,0,1-3.23,6.778,5.12,5.12,0,0,1-4-.233,5.262,5.262,0,0,1-2.67-3.041,5.349,5.349,0,0,1,3.22-6.778,5.193,5.193,0,0,1,3.22-.077l-0.49.192a0.769,0.769,0,0,0-.43.991,0.747,0.747,0,0,0,.7.489,0.772,0.772,0,0,0,.28-0.053l2.28-.9a0.757,0.757,0,0,0,.43-0.431,0.769,0.769,0,0,0-.02-0.613l-1.07-2.269a0.753,0.753,0,0,0-1.01-.362,0.774,0.774,0,0,0-.35,1.022l0.23,0.506a6.622,6.622,0,0,0-4.26.06,6.893,6.893,0,0,0-4.16,8.729,6.814,6.814,0,0,0,3.44,3.917,6.608,6.608,0,0,0,5.16.3,6.894,6.894,0,0,0,4.16-8.729A0.76,0.76,0,0,0,5474.66,475.912Z" transform="translate(-5462.5 -470.5)"/>
</svg>
