<?xml version="1.0" encoding="UTF-8"?><!DOCTYPE svg PUBLIC "-//W3C//DTD SVG 1.1//EN" "http://www.w3.org/Graphics/SVG/1.1/DTD/svg11.dtd"><svg xmlns="http://www.w3.org/2000/svg" xmlns:xlink="http://www.w3.org/1999/xlink"><defs><clipPath id="a"><path d="M0 0h246.758v42.463H0z"/></clipPath></defs><symbol id="_adobe-bowie" viewBox="0 0 109 44.57"><path d="m65.85 10.5-.67.42 9.5 2.37-13.93 31.28 2.34-2.89 12.78-28.09 1.15.28L65.6 38.54l22.75-28ZM105.56 11.05l.56-.55H92.93l-5 14.88.79-.29-7.31 18.37L83.54 41l6.76-16.48 1.58-.52-6.17 14.6 16.48-17.79-.19-.47-7.65 2.79 4.27-9.67 6.94-2.34ZM86.36 26l5.26-15.5h-1.33L85 26.5ZM108.6 2.47l.4-2h-6.37l-1.57 7.82h6.52l.4-2h-3.93l.2-1h3.33l.42-1.91h-3.32l.18-.92h3.74ZM97.14 8.29h2.65l1.56-7.83h-2.64ZM95.53.48 93.16 5 92.72.48h-2.43L88 4.94 87.49.48h-2.65l1 7.83h2.83l2.16-4.13.39 4.11h2.84L98.13.46ZM79.66 6.35a1.46 1.46 0 0 1-1.12-.41 1.52 1.52 0 0 1-.41-1.11 3.1 3.1 0 0 1 .24-1.2 2.18 2.18 0 0 1 .72-.87 1.83 1.83 0 0 1 1.09-.32 1.54 1.54 0 0 1 1.12.41A1.52 1.52 0 0 1 81.71 4a3.1 3.1 0 0 1-.24 1.2 2.16 2.16 0 0 1-.71.87 1.86 1.86 0 0 1-1.1.28Zm-.22 2.14A5.29 5.29 0 0 0 82 7.9a4.42 4.42 0 0 0 1.76-1.67 4.62 4.62 0 0 0 .63-2.43A3.43 3.43 0 0 0 83.9 2 3.24 3.24 0 0 0 82.5.74a4.62 4.62 0 0 0-2.1-.45 5.49 5.49 0 0 0-2.55.59 4.29 4.29 0 0 0-1.75 1.68A4.73 4.73 0 0 0 75.46 5 3.34 3.34 0 0 0 76 6.81a3.15 3.15 0 0 0 1.39 1.24 4.67 4.67 0 0 0 2.05.44Zm-8.4-2h-1.7l.24-1.24h1.71a.76.76 0 0 1 .46.14.41.41 0 0 1 .19.38.61.61 0 0 1-.25.53 1 1 0 0 1-.69.19Zm.42-4.2a.9.9 0 0 1 .51.12.4.4 0 0 1 .18.36c0 .45-.29.68-.88.68h-1.34l.24-1.16Zm2 2a2.48 2.48 0 0 0 1-.78 1.87 1.87 0 0 0 .37-1.16A1.57 1.57 0 0 0 74.11 1 3.76 3.76 0 0 0 72 .49h-4.06l-1.56 7.8h4.52a5.17 5.17 0 0 0 2.64-.62 2.06 2.06 0 0 0 1-1.87 1.58 1.58 0 0 0-.27-.92 1.91 1.91 0 0 0-.76-.59M51.1 25.49l-2.66-2.67-2.67 2.67-1.24-1.24 2.67-2.67-2.67-2.66 1.24-1.24 2.67 2.67 2.66-2.67 1.24 1.24-2.67 2.66 2.67 2.67-1.24 1.24zM19.75 0h11.57v27.7ZM11.6 0H0v27.7ZM15.68 10.21l7.37 17.49h-4.83L16 22.13h-5.38ZM4.05 38.81c-.22-1.13-.62-2.82-.77-3.92-.15 1.06-.44 2.56-.71 3.92Zm-1.84 1.65-.51 2.41c0 .09 0 .11-.12.11H.11C0 43 0 43 0 42.82l2-8.72a3.18 3.18 0 0 0 .08-.81.08.08 0 0 1 .07-.09h2.13c.08 0 .1 0 .12.11l2.37 9.58c0 .09 0 .13-.1.13H5a.11.11 0 0 1-.12-.1l-.54-2.42ZM10.67 36.91a1 1 0 0 0-.34 0c-.85 0-1.49.78-1.49 2.31s.64 2.29 1.48 2.29a1.34 1.34 0 0 0 .35 0v-4.6ZM7 39.23c0-2.23 1.33-3.94 3.43-3.94h.24v-2.63a.08.08 0 0 1 .09-.08h1.63c.06 0 .08 0 .08.08v8.78a8.34 8.34 0 0 0 0 1s0 .08-.06.1a5.14 5.14 0 0 1-2.21.54C8.33 43.1 7 41.84 7 39.23M15.23 39.17c0 1.42.3 2.35 1 2.35s1-.8 1-2.34-.25-2.32-1-2.32-1 .72-1 2.31Zm3.76 0c0 2.4-1 3.93-2.77 3.93-2 0-2.78-1.74-2.78-4s1-3.87 2.8-3.87S19 36.72 19 39.17M22.31 36.89a2 2 0 0 0-.55.08v4.5h.32c.69 0 1.5-.7 1.51-2.59.01-1.45-.59-1.99-1.28-1.99Zm-.63-4.31c.06 0 .08 0 .08.09v2.7a3.75 3.75 0 0 1 .82-.09c1.59 0 2.79 1.21 2.79 3.58 0 2.75-1.57 4.24-3.53 4.24a5.6 5.6 0 0 1-1.77-.28.12.12 0 0 1-.07-.12v-10a.08.08 0 0 1 .07-.09h1.63ZM29.13 38.17h.46V38c0-.58-.19-1.19-.81-1.19s-.86.62-.93 1.37Zm-1.29 1.44c0 1.17.44 1.89 1.67 1.89a3.26 3.26 0 0 0 1.16-.21c.08 0 .12 0 .12.07v1.27c0 .1 0 .17-.1.2a3.27 3.27 0 0 1-1.51.27c-2.25 0-3.12-1.64-3.12-3.8s1-4 2.8-4 2.42 1.66 2.42 3a8.74 8.74 0 0 1-.08 1.14c0 .08-.06.11-.14.12h-3.22Z"/></symbol><symbol id="_oldadobe-bowie" viewBox="0 0 209 25"><path d="M9.7 0H0v23ZM16.52 0h9.68v23ZM13.11 8.48 19.28 23h-4.05l-1.84-4.62H8.87ZM42 14.63l1.14 3.25a.19.19 0 0 0 .2.12h2.19c.12 0 .14-.06.12-.18L41.13 5.31c0-.1 0-.12-.14-.12h-2.73a.13.13 0 0 0-.12.14 2.75 2.75 0 0 1-.17 1l-4 11.42c0 .14 0 .2.14.2h2a.2.2 0 0 0 .22-.16l1.08-3.21Zm-4-2.13c.59-1.78 1.38-4.06 1.69-5.36.39 1.37 1.31 4.07 1.73 5.36ZM51.51 18.19a9.34 9.34 0 0 0 3.72-.76.15.15 0 0 0 .12-.17 12.24 12.24 0 0 1-.09-1.26V4.23c0-.07 0-.11-.09-.11H53c-.08 0-.12 0-.12.14v4a6.77 6.77 0 0 0-.85-.06c-3.45 0-5.58 2.26-5.58 5.09 0 3.28 2.18 4.91 5 4.91Zm1.4-2.19a4 4 0 0 1-1.15.16 2.67 2.67 0 0 1-2.84-3 2.87 2.87 0 0 1 3.07-3 2.58 2.58 0 0 1 .92.14ZM62.18 8.19a4.71 4.71 0 0 0-4.78 5c0 2.48 1.45 5 4.73 5 2.77 0 4.72-2 4.72-5.05 0-2.67-1.65-4.95-4.67-4.95Zm-.12 2c1.66 0 2.37 1.42 2.37 3 0 2-1 3-2.25 3-1.5 0-2.38-1.24-2.38-3s.94-3 2.26-3ZM69.06 4.12a.13.13 0 0 0-.14.14v13.33a.19.19 0 0 0 .14.17 10 10 0 0 0 3 .43c2.91 0 5.74-1.79 5.74-5.4a4.42 4.42 0 0 0-4.64-4.6 5.65 5.65 0 0 0-1.79.28V4.28c0-.14 0-.16-.18-.16ZM75.33 13a3 3 0 0 1-3.1 3.17 2.92 2.92 0 0 1-.91-.1v-5.65a3.55 3.55 0 0 1 1.38-.22 2.52 2.52 0 0 1 2.63 2.8ZM85.74 13.73a14.62 14.62 0 0 0 2-.08.17.17 0 0 0 .16-.14 6.45 6.45 0 0 0 .08-1.2 3.89 3.89 0 0 0-4-4.12c-3 0-4.62 2.4-4.62 5.11 0 2.4 1.28 4.89 4.85 4.89a6.57 6.57 0 0 0 3-.56.21.21 0 0 0 .12-.22v-1.62c0-.09-.06-.11-.12-.07a6.23 6.23 0 0 1-2.43.47c-2 0-2.92-1.1-3-2.46Zm-4-1.68a2.14 2.14 0 0 1 2.12-2 1.81 1.81 0 0 1 1.89 1.82V12a9.55 9.55 0 0 1-1.08 0ZM97.99 15.537l6.535-6.533 1.414 1.414-6.534 6.533z"/><path d="m98.053 10.405 1.415-1.414L106 15.525l-1.414 1.414zM172.93 10l.55-2.74h-8.74L162.59 18h8.94l.55-2.74h-5.39l.28-1.42h4.56l.52-2.61h-4.55l.24-1.26h5.19Zm-15.72 8h3.63L163 7.24h-3.63L157.21 18ZM155 7.24l-3.24 6.23-.61-6.23h-3.35l-3.19 6.14-.7-6.14h-3.57L141.63 18h3.89l2.95-5.67.62 5.67H153l5.59-10.76H155Zm-21.76 8.07a2 2 0 0 1-1.54-.57 2.09 2.09 0 0 1-.56-1.52 4 4 0 0 1 .33-1.64 2.83 2.83 0 0 1 1-1.2 2.5 2.5 0 0 1 1.49-.45 2.05 2.05 0 0 1 1.55.57A2.09 2.09 0 0 1 136 12a4 4 0 0 1-.33 1.64 2.85 2.85 0 0 1-1 1.2 2.51 2.51 0 0 1-1.44.47Zm-.31 2.93a7.43 7.43 0 0 0 3.5-.81 5.91 5.91 0 0 0 2.41-2.29 6.4 6.4 0 0 0 .87-3.34 4.72 4.72 0 0 0-.71-2.5 4.46 4.46 0 0 0-1.91-1.7 6.5 6.5 0 0 0-2.88-.6 7.39 7.39 0 0 0-3.49.81 5.85 5.85 0 0 0-2.41 2.29 6.4 6.4 0 0 0-.87 3.34 4.72 4.72 0 0 0 .67 2.5 4.5 4.5 0 0 0 1.9 1.7 6.56 6.56 0 0 0 2.91.6Zm-11.53-2.78h-2.34l.34-1.69h2.34a1.18 1.18 0 0 1 .64.18.61.61 0 0 1 .25.53.88.88 0 0 1-.33.73 1.48 1.48 0 0 1-.9.25Zm.6-5.69a1.28 1.28 0 0 1 .71.17.56.56 0 0 1 .24.49c0 .62-.4.94-1.2.94h-1.84l.32-1.6Zm2.81 2.69a3.43 3.43 0 0 0 1.42-1.06 2.64 2.64 0 0 0 .5-1.59 2.14 2.14 0 0 0-1-1.9 5.18 5.18 0 0 0-2.87-.67h-5.7L115 18h6.2a6.85 6.85 0 0 0 3.62-.86 2.82 2.82 0 0 0 1.41-2.56 2.08 2.08 0 0 0-.38-1.27 2.58 2.58 0 0 0-1.06-.84M181.51 2l-.46.29 6.54 1.6L178 25l1.61-1.95 8.8-19 .79.19-7.86 16.65L197 2ZM208.62 2.37 209 2h-9.07l-3.46 9.93.54-.19L192 24l1.46-1.62 4.67-11 1.07-.38-4.2 9.73 11.3-11.88c-.05-.11-.09-.22-.13-.32l-5.27 1.86 2.94-6.46 4.78-1.56ZM195 12.7 199 2h-1l-4 11Z"/></symbol><symbol id="arrow-down" viewBox="0 0 9.9 6.36"><path d="M4.95 6.36 0 1.41 1.41 0l3.54 3.54L8.48 0 9.9 1.41 4.95 6.36z"/></symbol><symbol id="arrow-external" viewBox="0 0 9.71 9.71"><path d="M9.71 7.33h-2V2H2.38V0h7.33v7.33z"/><path d="m0 8.3 7.276-7.275L8.69 2.439 1.414 9.715z"/></symbol><symbol id="download" viewBox="0 0 10.05 13.28"><path d="M.05 11.28h10v2h-10zM8.48 4.76 5.95 7.3V0h-2v7.3L1.41 4.76 0 6.18l4.95 4.95L9.9 6.18 8.48 4.76z"/></symbol><symbol id="download-desktop" viewBox="0 0 158 80"><path fill-rule="evenodd" clip-rule="evenodd" d="M4.1 22.848h18.057a2 2 0 0 1 2 2v4.62h2v-4.62a4 4 0 0 0-4-4H4.1a4 4 0 0 0-4 4v34.436a4 4 0 0 0 4 4h18.057a4 4 0 0 0 4-4v-19.1h-2v19.1a2 2 0 0 1-2 2H4.1a2 2 0 0 1-2-2V24.848a2 2 0 0 1 2-2Z" fill="#000"/><circle cx="13.047" cy="54.766" r="1.85" fill="#000"/><rect x="65.658" y="1" width="90.48" height="64.585" rx="4" stroke="#000" stroke-width="2"/><path d="m98.636 65.353-3.539 10.95A2 2 0 0 0 97 78.916h29.082a2 2 0 0 0 1.914-2.58l-3.328-10.984" stroke="#000" stroke-width="2"/><circle cx="112.131" cy="57.23" r="1.85" fill="#000"/><path d="M59.338 35.233a1 1 0 0 0 0-1.415l-6.364-6.364a1 1 0 0 0-1.414 1.415l5.657 5.656-5.657 5.657a1 1 0 1 0 1.414 1.414l6.364-6.363Zm-40.988.292H58.63v-2H18.35v2ZM13.875 40a4.475 4.475 0 0 1 4.475-4.475v-2A6.475 6.475 0 0 0 11.875 40h2Z" fill="#000"/></symbol><symbol id="adobe-bowie" viewBox="0 0 246.758 42.463"><path d="m205.374 9.781-.654.409 9.117 2.271-13.357 30 2.241-2.772 12.258-26.945 1.106.275-10.96 23.663 21.822-26.9Z"/><g clip-path="url(#a)"><path d="m243.46 10.315.533-.533h-12.646l-4.815 14.268.755-.272L220.3 41.39l2.036-2.329-.01.011 6.5-15.846 1.515-.545-5.914 14.006 15.8-17.074-.175-.455-7.345 2.672 4.1-9.273Zm-18.416 14.368 5.039-14.9h-1.273l-5.083 15.322Zm21.327-22.598.386-1.913h-6.112l-1.5 7.521h6.252l.388-1.913h-3.772l.193-.988h3.191l.365-1.826h-3.18l.172-.881ZM235.38 7.693h2.535l1.506-7.521h-2.537ZM233.833.172l-2.267 4.351-.43-4.351H228.8l-2.23 4.287-.483-4.287h-2.5l.9 7.521h2.713l2.064-3.965.429 3.965h2.718l3.915-7.521ZM218.62 5.813a1.449 1.449 0 0 1-1.08-.4 1.45 1.45 0 0 1-.392-1.064 2.782 2.782 0 0 1 .236-1.149 2 2 0 0 1 .683-.838 1.784 1.784 0 0 1 1.048-.312 1.449 1.449 0 0 1 1.079.4 1.449 1.449 0 0 1 .393 1.063 2.784 2.784 0 0 1-.237 1.15 2 2 0 0 1-.683.838 1.779 1.779 0 0 1-1.047.312m-.22 2.052a5.151 5.151 0 0 0 2.444-.57 4.177 4.177 0 0 0 1.687-1.6 4.5 4.5 0 0 0 .607-2.337 3.287 3.287 0 0 0-.467-1.751 3.13 3.13 0 0 0-1.328-1.182A4.514 4.514 0 0 0 219.329 0a5.154 5.154 0 0 0-2.444.57 4.181 4.181 0 0 0-1.685 1.595 4.49 4.49 0 0 0-.608 2.337 3.287 3.287 0 0 0 .467 1.751 3.141 3.141 0 0 0 1.333 1.187 4.517 4.517 0 0 0 2.014.425m-8.059-1.945h-1.633l.237-1.182h1.633a.74.74 0 0 1 .446.129.425.425 0 0 1 .177.365.6.6 0 0 1-.236.511 1.017 1.017 0 0 1-.624.177m.4-3.975a.873.873 0 0 1 .5.118.392.392 0 0 1 .171.344q0 .656-.837.655h-1.289l.224-1.117Zm1.967 1.88a2.314 2.314 0 0 0 .987-.747 1.81 1.81 0 0 0 .355-1.112 1.509 1.509 0 0 0-.687-1.327 3.585 3.585 0 0 0-2.01-.467h-3.986l-1.5 7.521h4.341a4.784 4.784 0 0 0 2.53-.6 1.969 1.969 0 0 0 .983-1.794 1.492 1.492 0 0 0-.263-.886 1.766 1.766 0 0 0-.746-.586"/><path d="m178.592 6.573-24.735 24.735m0-24.735 24.735 24.735" stroke="currentColor" stroke-miterlimit="10" stroke-width="1.505"/><path d="M64.224 20.967c-.595-1.967-1.784-5.56-2.349-7.667h-.03c-.475 1.993-1.546 5.263-2.319 7.672Zm-5.768 3.716-1.427 4.4a.323.323 0 0 1-.327.237h-3.449c-.208 0-.268-.119-.238-.3l5.946-17.156a5.4 5.4 0 0 0 .3-1.813.2.2 0 0 1 .178-.208h4.757c.149 0 .208.029.238.178l6.749 19.029c.06.148.03.267-.148.267h-3.867a.3.3 0 0 1-.327-.208l-1.517-4.43Zm22.799-6.838a3.082 3.082 0 0 0-1.1-.149 3.967 3.967 0 0 0-4.255 4.163c0 2.943 1.695 4.222 3.954 4.222a4.213 4.213 0 0 0 1.4-.178Zm-9.6 4.222c0-4.252 3.182-7.82 8.622-7.82.238 0 .536.03.982.06V8.45a.188.188 0 0 1 .208-.209h3.746c.149 0 .178.06.178.179v17.572a16.789 16.789 0 0 0 .119 2.17c0 .149-.029.208-.208.268a14.938 14.938 0 0 1-5.857 1.189c-4.4 0-7.79-2.5-7.79-7.552m20.294-.178c0 2.616 1.219 4.281 3.211 4.281 1.725 0 3.033-1.486 3.033-4.222 0-2.319-.951-4.252-3.211-4.252-1.725 0-3.033 1.547-3.033 4.193m10.466-.03c0 4.668-3.033 7.76-7.314 7.76-5.084 0-7.344-3.835-7.344-7.671 0-4.222 2.825-7.7 7.4-7.7 4.787 0 7.255 3.6 7.255 7.612m8.305-4.105a6.062 6.062 0 0 0-1.755.238v8.058a4.634 4.634 0 0 0 1.1.119 4.093 4.093 0 0 0 4.312-4.46c0-2.706-1.576-3.955-3.657-3.955m-2.052-9.514c.238 0 .3.03.3.238v6.1a9.578 9.578 0 0 1 2.5-.327 6.8 6.8 0 0 1 7.136 7.076c0 5.56-4.4 8.3-8.92 8.3a15.558 15.558 0 0 1-4.668-.684.351.351 0 0 1-.178-.3V8.449c0-.149.059-.208.208-.208Zm19.608 11.893a9.833 9.833 0 0 0 1.487-.059v-.209a2.418 2.418 0 0 0-2.527-2.348 2.817 2.817 0 0 0-2.855 2.616Zm-3.865 2.884c.149 1.695 1.338 3.092 4.252 3.092a9.206 9.206 0 0 0 3.657-.684c.089-.059.178-.029.178.149V28.4c0 .208-.059.3-.208.356a9.978 9.978 0 0 1-4.549.863c-5.59 0-7.552-3.836-7.552-7.523 0-4.1 2.527-7.849 7.195-7.849 4.49 0 6.274 3.479 6.274 6.422a9.533 9.533 0 0 1-.149 1.992.256.256 0 0 1-.238.238 27.443 27.443 0 0 1-3.062.119ZM25.861 1.717h14.386v34.446Zm-10.136 0H1.327v34.446Zm5.068 12.694 9.168 21.75h-6.008l-2.743-6.927H14.5Z"/><path d="M64.224 20.967c-.595-1.967-1.784-5.56-2.349-7.667h-.03c-.475 1.993-1.546 5.263-2.319 7.672Zm-5.768 3.716-1.427 4.4a.323.323 0 0 1-.327.237h-3.449c-.208 0-.268-.119-.238-.3l5.946-17.156a5.4 5.4 0 0 0 .3-1.813.2.2 0 0 1 .178-.208h4.757c.149 0 .208.029.238.178l6.749 19.029c.06.148.03.267-.148.267h-3.867a.3.3 0 0 1-.327-.208l-1.517-4.43Zm22.799-6.838a3.082 3.082 0 0 0-1.1-.149 3.967 3.967 0 0 0-4.255 4.163c0 2.943 1.695 4.222 3.954 4.222a4.213 4.213 0 0 0 1.4-.178Zm-9.6 4.222c0-4.252 3.182-7.82 8.622-7.82.238 0 .536.03.982.06V8.45a.188.188 0 0 1 .208-.209h3.746c.149 0 .178.06.178.179v17.572a16.789 16.789 0 0 0 .119 2.17c0 .149-.029.208-.208.268a14.938 14.938 0 0 1-5.857 1.189c-4.4 0-7.79-2.5-7.79-7.552m20.294-.178c0 2.616 1.219 4.281 3.211 4.281 1.725 0 3.033-1.486 3.033-4.222 0-2.319-.951-4.252-3.211-4.252-1.725 0-3.033 1.547-3.033 4.193m10.466-.03c0 4.668-3.033 7.76-7.314 7.76-5.084 0-7.344-3.835-7.344-7.671 0-4.222 2.825-7.7 7.4-7.7 4.787 0 7.255 3.6 7.255 7.612m8.305-4.105a6.062 6.062 0 0 0-1.755.238v8.058a4.634 4.634 0 0 0 1.1.119 4.093 4.093 0 0 0 4.312-4.46c0-2.706-1.576-3.955-3.657-3.955m-2.052-9.514c.238 0 .3.03.3.238v6.1a9.578 9.578 0 0 1 2.5-.327 6.8 6.8 0 0 1 7.136 7.076c0 5.56-4.4 8.3-8.92 8.3a15.558 15.558 0 0 1-4.668-.684.351.351 0 0 1-.178-.3V8.449c0-.149.059-.208.208-.208Zm19.608 11.893a9.833 9.833 0 0 0 1.487-.059v-.209a2.418 2.418 0 0 0-2.527-2.348 2.817 2.817 0 0 0-2.855 2.616Zm-3.865 2.884c.149 1.695 1.338 3.092 4.252 3.092a9.206 9.206 0 0 0 3.657-.684c.089-.059.178-.029.178.149V28.4c0 .208-.059.3-.208.356a9.978 9.978 0 0 1-4.549.863c-5.59 0-7.552-3.836-7.552-7.523 0-4.1 2.527-7.849 7.195-7.849 4.49 0 6.274 3.479 6.274 6.422a9.533 9.533 0 0 1-.149 1.992.256.256 0 0 1-.238.238 27.443 27.443 0 0 1-3.062.119ZM25.861 1.717h14.386v34.446Zm-10.136 0H1.327v34.446Zm5.068 12.694 9.168 21.75h-6.008l-2.743-6.927H14.5Z"/></g></symbol><symbol id="close" viewBox="0 0 8 8"><path d="M2.58 4 0 6.57 1.41 8 4 5.39 6.59 8 8 6.58 5.4 4l2.54-2.58L6.53 0 4 2.55 1.46 0 .05 1.43Z" fill-rule="evenodd"/></symbol><symbol id="grid" viewBox="0 0 12 12"><path d="M0 0h2.4v2.4H0zM0 4.8h2.4v2.4H0zM0 9.6h2.4V12H0zM9.6 0H12v2.4H9.6zM9.6 4.8H12v2.4H9.6zM9.6 9.6H12V12H9.6zM4.8 0h2.4v2.4H4.8zM4.8 4.8h2.4v2.4H4.8zM4.8 9.6h2.4V12H4.8z"/></symbol><symbol id="sound-off" viewBox="0 0 14 10"><path d="M5 8v2M1 8v2M9 8v2M13 8v2" fill="none" stroke="#ec3030" stroke-width="2"/></symbol><symbol id="rotate" viewBox="0 0 12 14.91"><path d="M6 2.91a5.82 5.82 0 0 0-1.62.24l1-2.33L3.59 0 1.21 5.34l5.3 2.94 1-1.74-2.64-1.46A3.86 3.86 0 0 1 6 4.91a4 4 0 1 1-4 4H0a6 6 0 1 0 6-6Z"/></symbol><symbol id="sound-on" viewBox="0 0 14 10"><path d="M5 2v8M1 6v4M9 4v6M13 0v10" fill="none"/></symbol><symbol id="headphones" viewBox="0 0 52 47"><path fill-rule="evenodd" clip-rule="evenodd" d="M52 42a5 5 0 0 1-5 5h-1a5 5 0 0 1-5-5V31a5 5 0 0 1 5-5h4C50 12.745 39.255 2 26 2S2 12.745 2 26h4a5 5 0 0 1 5 5v11a5 5 0 0 1-5 5H5a5 5 0 0 1-5-5V26C0 11.64 11.64 0 26 0s26 11.64 26 26v16Zm-2-14h-4a3 3 0 0 0-3 3v11a3 3 0 0 0 3 3h1a3 3 0 0 0 3-3V28ZM6 28H2v14a3 3 0 0 0 3 3h1a3 3 0 0 0 3-3V31a3 3 0 0 0-3-3Z" fill="#000"/></symbol></svg>