<svg xmlns="http://www.w3.org/2000/svg" width="29.166" height="28.836" viewBox="0 0 29.166 28.836"><g transform="translate(-54.12 -50.51)"><path d="M-67.384-635.739a6.013,6.013,0,0,1,6.015-6.013,5.988,5.988,0,0,1,3.847,1.392v-8.222a1,1,0,0,1,0-.164v-4.848a1.083,1.083,0,0,1,.844-1.057l17.138-3.883a1.078,1.078,0,0,1,.914.211,1.081,1.081,0,0,1,.407.846v4.887c0,.03,0,.059,0,.088v12.793h0a6.02,6.02,0,0,1-6.013,6.014,6.014,6.014,0,0,1-6.015-6.014,6.013,6.013,0,0,1,6.014-6.014,5.99,5.99,0,0,1,3.848,1.392v-6.861L-55.356-647.8v12.061a6.02,6.02,0,0,1-6.013,6.014A6.014,6.014,0,0,1-67.384-635.739Zm2.165,0a3.849,3.849,0,0,0,3.848,3.848,3.848,3.848,0,0,0,3.848-3.849,3.852,3.852,0,0,0-3.847-3.848A3.849,3.849,0,0,0-65.218-635.737Zm17.138-3.97a3.849,3.849,0,0,0,3.849,3.848,3.848,3.848,0,0,0,3.847-3.849,3.852,3.852,0,0,0-3.847-3.848A3.849,3.849,0,0,0-48.081-639.707Zm-7.276-13.022v2.711l14.972-3.392v-2.711Z" transform="translate(121.504 709.07)" fill="#fff"/></g></svg>